<svg width="130" height="130" viewBox="0 0 130 130" fill="none" xmlns="http://www.w3.org/2000/svg">
<g filter="url(#filter0_d_181_5)">
<circle r="50" transform="matrix(0.36999 -0.929036 -0.929036 -0.36999 64.9511 64.9513)" fill="#DD4053"/>
<path d="M110.582 31.4574L108.925 41.0232L100.831 30.2651L110.582 31.4574Z" fill="#DD4053"/>
</g>
<path d="M33.4166 77.2543C33.3005 77.4283 33.1514 77.634 32.9692 77.8715C32.7923 78.1072 32.5788 78.3728 32.3288 78.6685C32.1013 78.9273 31.898 79.1544 31.7191 79.3498C31.5436 79.5383 31.3923 79.6863 31.2653 79.7939C31.0845 79.9666 30.8807 80.1149 30.654 80.2389C30.4291 80.3682 30.191 80.4757 29.9396 80.5613C29.861 80.5881 29.7675 80.6054 29.659 80.6131C29.5576 80.6243 29.4465 80.6329 29.3258 80.6389C29.1771 80.6487 29.0512 80.6565 28.948 80.6625C28.8448 80.6684 28.7608 80.6795 28.6962 80.6956L28.5698 80.6335L28.3312 80.6797C28.2299 80.7084 28.0925 80.6997 27.9189 80.6536C27.7506 80.6057 27.5567 80.5256 27.3372 80.4133C27.1265 80.3098 26.9473 80.2042 26.7996 80.0967C26.6571 79.9874 26.5453 79.8823 26.4641 79.7813L26.0217 79.1779C25.8698 78.9724 25.7515 78.8052 25.6666 78.6763C25.5817 78.5473 25.5348 78.461 25.5257 78.4173L25.4917 78.0343C25.4087 77.9281 25.3408 77.8402 25.2878 77.7705C25.2401 77.6991 25.2091 77.6424 25.1948 77.6005C25.1805 77.5586 25.1499 77.4258 25.1029 77.2021C25.0559 76.9785 24.9908 76.6674 24.9076 76.269C24.9193 76.1831 24.9283 76.0807 24.9345 75.9616C24.9407 75.8426 24.9398 75.7114 24.9318 75.5679L24.8494 75.4031C24.8351 75.3612 24.8269 75.3114 24.8247 75.2536C24.8261 75.1889 24.8308 75.1171 24.8391 75.0383C24.8721 74.7406 24.9042 74.4402 24.9354 74.1373C24.9666 73.8343 25.0005 73.5392 25.0371 73.252C25.0776 73.0277 25.1452 72.7884 25.2397 72.534C25.3395 72.2778 25.4602 72.0058 25.6018 71.7178C25.631 71.6494 25.6655 71.5616 25.705 71.4546C25.7445 71.3476 25.7945 71.2283 25.8549 71.0966C25.9261 71.0139 26.0067 70.8987 26.0967 70.7511C26.1901 70.5965 26.2974 70.4051 26.4183 70.1767C26.4636 70.1379 26.5166 70.0877 26.5775 70.0261C26.6383 69.9644 26.7122 69.8895 26.7991 69.8015C26.8199 69.7768 26.8424 69.7399 26.8666 69.6908C26.896 69.6398 26.9298 69.5845 26.9679 69.5247C27.0076 69.4527 27.1904 69.3027 27.5161 69.0748C27.8418 68.8469 28.0597 68.7142 28.1697 68.6767C28.4106 68.5946 28.6212 68.5433 28.8013 68.5228C28.9796 68.4971 29.131 68.504 29.2555 68.5434L29.523 68.5049C29.7486 68.4806 29.9576 68.5877 30.1499 68.8262C30.3423 69.0647 30.5259 69.4406 30.7008 69.9539C30.783 70.1949 30.8464 70.3896 30.8911 70.538C30.9341 70.6812 30.9592 70.7808 30.9666 70.8367C30.9887 71.0046 31.0199 71.2161 31.0601 71.4714C31.1038 71.7196 31.1477 72.0115 31.1919 72.3472C31.2153 72.4328 31.2259 72.5841 31.2239 72.8012C31.2253 73.0111 31.2218 73.2754 31.2134 73.594C31.2087 73.9405 31.1948 74.2083 31.1715 74.3975C31.1465 74.5814 31.1105 74.6902 31.0634 74.7237C30.8718 74.8475 30.6662 74.9819 30.4466 75.1268C30.3314 75.1661 30.2475 75.1859 30.195 75.1863C30.1408 75.1814 30.1065 75.158 30.0922 75.1161C30.0797 75.0794 30.0679 75.0191 30.0569 74.9352C30.051 74.8495 30.0428 74.7909 30.0321 74.7595C29.9485 74.5658 29.8641 74.3695 29.7788 74.1706C29.7538 74.0972 29.7256 73.946 29.6943 73.717C29.6631 73.488 29.6322 73.1915 29.6018 72.8277C29.5659 72.4307 29.5463 72.1159 29.543 71.8831C29.5379 71.6452 29.5474 71.4929 29.5714 71.4262C29.6751 71.233 29.7396 71.0619 29.7649 70.913C29.7936 70.7571 29.7901 70.6267 29.7544 70.522C29.7044 70.3753 29.624 70.2595 29.5132 70.1745C29.4076 70.0877 29.2743 70.0396 29.1132 70.0301C28.9663 70.0451 28.8177 70.0636 28.6673 70.0856C28.5204 70.1006 28.3718 70.1103 28.2213 70.1148C28.1256 70.1942 28.0368 70.2596 27.9549 70.3109C27.8782 70.3604 27.8111 70.4037 27.7536 70.4408C27.4223 70.618 27.1398 70.8956 26.906 71.2734C26.6775 71.6494 26.497 72.1231 26.3643 72.6945C26.2626 73.1852 26.2089 73.6624 26.2032 74.1262C26.1958 74.5847 26.2364 75.0298 26.325 75.4615C26.3469 75.5943 26.3742 75.7604 26.4071 75.9597C26.4381 76.1537 26.4677 76.3863 26.4957 76.6573C26.5964 76.7984 26.6874 76.9282 26.7687 77.0466L26.9338 77.7884C26.9427 77.8146 26.985 77.8616 27.0607 77.9293C27.1346 77.9918 27.2481 78.0847 27.4012 78.2079C27.4892 78.2773 27.5773 78.3642 27.6655 78.4687C27.7537 78.5731 27.8367 78.6968 27.9147 78.8397C27.9377 78.8728 27.9694 78.9059 28.0098 78.9389C28.0556 78.9701 28.1012 78.9925 28.1468 79.0062C28.2486 79.0475 28.3451 79.0819 28.4362 79.1093C28.7436 79.2735 29.0444 79.3756 29.3387 79.4156C29.6364 79.4486 29.9293 79.416 30.2174 79.3179C30.2436 79.3089 30.336 79.2628 30.4947 79.1795C30.6586 79.0944 30.8801 78.9722 31.159 78.8128C31.1989 78.7583 31.2545 78.6984 31.3258 78.6332C31.4024 78.5662 31.4937 78.4912 31.5999 78.4083C31.669 78.2678 31.7488 78.1588 31.8392 78.0812C31.9279 77.9983 32.0168 77.9417 32.1059 77.9114C32.1195 77.8658 32.1358 77.8106 32.1546 77.7457C32.1787 77.679 32.2114 77.6036 32.2529 77.5193C32.3886 77.4029 32.505 77.2726 32.602 77.1284C32.6973 76.9791 32.7819 76.8157 32.856 76.6385C33.2208 77.0228 33.4077 77.2281 33.4166 77.2543ZM32.8403 76.6439C32.8644 76.5947 32.8877 76.5342 32.9099 76.4623C32.9252 76.3869 32.9465 76.3036 32.9739 76.2125L33.437 75.5899C33.48 75.4758 33.5542 75.3248 33.6597 75.1369C33.7634 74.9437 33.894 74.7092 34.0514 74.4334C34.0579 74.3669 34.0775 74.2871 34.1102 74.1941C34.1462 74.0941 34.1937 73.9932 34.2525 73.8913C34.3026 73.7982 34.3545 73.7104 34.4082 73.6278C34.4602 73.5399 34.5077 73.4565 34.5509 73.3774C34.6027 73.2721 34.6493 73.1685 34.6906 73.0668C34.7372 72.9632 34.7846 72.8623 34.833 72.7639C34.8918 72.662 34.9586 72.575 35.0334 72.5027C35.1081 72.4305 35.1979 72.3765 35.3026 72.3408C35.4179 72.3015 35.5097 72.2878 35.578 72.2996C35.6498 72.3043 35.6972 72.332 35.7203 72.3826C35.709 72.521 35.695 72.6602 35.6785 72.8003L35.7497 72.8549C35.9498 72.6873 36.1082 72.5603 36.2249 72.4738C36.3416 72.3872 36.4183 72.3377 36.4549 72.3252C36.8373 72.1949 37.1629 72.2155 37.4318 72.3869C37.7042 72.5514 37.9207 72.8693 38.0813 73.3407C38.1117 73.4298 38.1369 73.5381 38.157 73.6657C38.1771 73.7933 38.1877 73.9359 38.1887 74.0934C38.1899 74.2684 38.1769 74.419 38.1497 74.5452C38.1278 74.6695 38.0987 74.7642 38.0624 74.8292C38.1065 74.8902 38.1471 74.9319 38.184 74.9544C38.2191 74.9717 38.2576 74.9732 38.2995 74.9589C38.3414 74.9446 38.3788 74.9172 38.4118 74.8768C38.45 74.8345 38.4917 74.7765 38.5367 74.7027C38.6283 74.8001 38.7191 74.9036 38.8091 75.0132C38.9026 75.1159 38.996 75.2185 39.0894 75.3211C39.0237 75.4371 38.9597 75.5495 38.8974 75.6584C38.8352 75.7673 38.7667 75.8754 38.6922 75.9827C38.6057 76.1232 38.5154 76.2358 38.4215 76.3205C38.331 76.3981 38.2334 76.4547 38.1286 76.4904C38.0081 76.5315 37.8988 76.5366 37.8006 76.5057C37.7024 76.4749 37.6119 76.4151 37.529 76.3264C37.457 76.5439 37.3516 76.7581 37.2131 76.969C37.0779 77.1729 36.9138 77.3604 36.7207 77.5314C36.6112 77.6389 36.5076 77.7297 36.4101 77.8039C36.3161 77.871 36.2245 77.9198 36.1355 77.9501C36.1093 77.959 36.0605 77.9873 35.989 78.0351C35.9229 78.081 35.8662 78.112 35.819 78.1281C35.5205 78.2298 35.2079 78.196 34.8812 78.0267C34.5546 77.8574 34.3386 77.6182 34.2333 77.3092C34.1905 77.1835 34.1631 77.0086 34.1511 76.7847C34.1373 76.5556 34.1242 76.4227 34.1117 76.386C34.0992 76.3493 34.0763 76.325 34.0429 76.3129C34.013 76.2939 33.9772 76.2915 33.9353 76.3058C33.9091 76.3147 33.8596 76.3754 33.7868 76.4879C33.7141 76.6004 33.611 76.7612 33.4777 76.9703C33.4691 76.9967 33.4615 77.0343 33.4548 77.0834C33.4482 77.1324 33.4302 77.1912 33.4009 77.2596C33.3179 77.1534 33.2297 77.049 33.1363 76.9464C33.0411 76.8385 32.9424 76.7377 32.8403 76.6439ZM36.1296 73.9181C36.1052 73.9323 36.0757 73.9745 36.0412 74.0447C36.0101 74.1079 35.9835 74.1842 35.9613 74.2736C35.929 74.4191 35.8898 74.5786 35.8438 74.7522C35.8076 74.8347 35.7617 74.9058 35.7061 74.9657C35.6539 75.0186 35.5886 75.0671 35.5102 75.1114C35.4596 75.1345 35.4224 75.2056 35.3987 75.3248C35.3732 75.4387 35.3629 75.5971 35.3678 75.8001C35.3655 75.9821 35.3709 76.1352 35.3839 76.2594C35.397 76.3835 35.4169 76.4849 35.4437 76.5635C35.4937 76.7101 35.5679 76.8076 35.6662 76.856C35.7645 76.9043 35.8896 76.9026 36.0415 76.8509C36.2825 76.7687 36.4802 76.6283 36.6346 76.4295C36.7925 76.2237 36.9149 75.9569 37.002 75.6291C37.0519 75.501 37.0983 75.3799 37.1413 75.2659C37.1725 75.2202 37.1896 75.1588 37.1926 75.0818C37.1938 74.9995 37.1896 74.9016 37.1801 74.7879L37.1689 74.2918C37.0682 74.1507 36.9818 74.0428 36.9095 73.9681C36.8355 73.8881 36.7739 73.8447 36.7249 73.838C36.6934 73.8313 36.6304 73.8352 36.536 73.8498C36.4398 73.8592 36.3043 73.882 36.1296 73.9181ZM38.5288 74.7054C38.5581 74.6369 38.5838 74.558 38.606 74.4686C38.6263 74.374 38.6606 74.2687 38.7089 74.1529L39.0721 73.5205C39.0877 73.4976 39.0911 73.4731 39.0822 73.4469C39.0785 73.419 39.0686 73.3814 39.0525 73.3342C39.0241 73.2679 38.9975 73.2156 38.9727 73.1773C38.9317 73.0568 38.8865 72.8471 38.8373 72.5482C38.788 72.2493 38.7719 72.0647 38.789 71.9946L38.6909 71.8614C38.6394 71.4873 38.6034 71.0728 38.5829 70.6179C38.5658 70.156 38.5528 69.6547 38.544 69.114C38.5678 69.0124 38.5871 68.8889 38.6019 68.7435C38.6149 68.5929 38.6304 68.424 38.6484 68.2366C38.6446 67.9339 38.6652 67.6082 38.7101 67.2597C38.755 66.9111 38.8156 66.5485 38.8918 66.1717C38.997 65.674 39.1082 65.2883 39.2253 65.0145C39.3478 64.7389 39.4849 64.5752 39.6368 64.5235C39.9406 64.42 40.1681 64.4097 40.3191 64.4927C40.4736 64.5686 40.6062 64.769 40.7169 65.0938C40.7454 65.1776 40.7743 65.3139 40.8036 65.5027C40.8363 65.6845 40.8678 65.8199 40.8982 65.9089C40.9285 65.998 40.9426 66.1335 40.9403 66.3155C40.938 66.4975 40.9601 66.6566 41.0065 66.7928C41.0155 66.8365 41.0167 66.8829 41.01 66.9319L41.0554 67.0393C41.0594 67.1197 41.0583 67.2195 41.0521 67.3385C41.0459 67.4576 41.0337 67.602 41.0156 67.7719C41.0236 67.9153 41.0282 68.0833 41.0295 68.2758C41.0308 68.4683 41.0269 68.6801 41.018 68.9111C41.0044 68.9742 40.9848 69.054 40.9592 69.1504C40.9371 69.2398 40.9132 69.3415 40.8877 69.4554C40.8952 69.5288 40.8958 69.6163 40.8895 69.7179C40.8832 69.8194 40.8691 69.9411 40.8473 70.083C40.8373 70.1566 40.8186 70.239 40.7912 70.3301C40.7638 70.4213 40.7331 70.537 40.699 70.6773C40.6855 70.7403 40.6737 70.8174 40.6638 70.9085C40.6539 70.9996 40.6424 71.1029 40.6291 71.2185C40.6019 71.3272 40.5634 71.463 40.5137 71.6261C40.4641 71.7892 40.4094 71.9803 40.3496 72.1995C40.2854 72.5429 40.2115 72.875 40.1279 73.1958C40.301 73.7039 40.5317 74.055 40.82 74.2491C41.1118 74.4361 41.4593 74.4609 41.8626 74.3235C41.8888 74.3146 41.9611 74.2694 42.0796 74.1882C42.1981 74.1069 42.3591 73.9877 42.5628 73.8306C42.6167 73.7654 42.6782 73.6802 42.7475 73.5747C42.815 73.464 42.8912 73.3357 42.9759 73.1899L43.5287 73.8084C43.4336 73.9752 43.3393 74.1447 43.246 74.3169C43.1526 74.489 43.0557 74.6594 42.9554 74.8281C42.8394 75.0196 42.7101 75.1806 42.5675 75.311C42.4231 75.4362 42.2697 75.5265 42.1073 75.5818C42.0235 75.6104 41.8925 75.6463 41.7143 75.6895C41.5343 75.7274 41.3997 75.7616 41.3107 75.7919C41.0174 75.8919 40.7336 75.857 40.4595 75.6873C40.1906 75.5159 39.9365 75.2078 39.6973 74.7632C39.6708 74.7196 39.6408 74.6831 39.6073 74.6535C39.5791 74.6222 39.5334 74.591 39.4702 74.56C39.4253 74.6513 39.3718 74.7601 39.3096 74.8865C39.2527 75.0112 39.1793 75.156 39.0894 75.3211L38.5288 74.7054ZM40.1748 67.2604L40.1091 67.2477C39.9122 67.6305 39.7806 67.9735 39.7144 68.2767C39.6534 68.5781 39.6631 68.8467 39.7434 69.0824C39.7559 69.1191 39.759 69.1882 39.7526 69.2897C39.7498 69.3842 39.7375 69.5112 39.7158 69.6706C39.6873 69.8615 39.6616 70.0691 39.6386 70.2932C39.639 70.6205 39.6443 70.8847 39.6544 71.0859C39.6645 71.287 39.6829 71.4269 39.7097 71.5055L39.7783 71.5523C39.8236 71.531 39.8652 71.4642 39.9029 71.3519C39.9407 71.2397 39.9746 71.082 40.0048 70.8788C40.0145 70.7702 40.0373 70.6397 40.073 70.4872C40.1087 70.3347 40.1469 70.1551 40.1875 69.9483C40.2321 69.8045 40.2648 69.463 40.2857 68.9239C40.3066 68.3848 40.3026 68.047 40.2737 67.9107C40.2432 67.8042 40.2215 67.6976 40.2085 67.5909C40.199 67.4772 40.1878 67.3671 40.1748 67.2604ZM42.9602 73.1953C42.9895 73.1268 43.0152 73.0479 43.0374 72.9585C43.0578 72.8639 43.0921 72.7586 43.1403 72.6428L43.5036 72.0104C43.5192 71.9875 43.5225 71.963 43.5136 71.9368C43.5099 71.9089 43.5 71.8713 43.4839 71.8242C43.4555 71.7578 43.4289 71.7055 43.4041 71.6672C43.3631 71.5467 43.3179 71.337 43.2687 71.0381C43.2194 70.7392 43.2033 70.5547 43.2204 70.4845L43.1224 70.3513C43.0709 69.9772 43.0348 69.5627 43.0143 69.1078C42.9972 68.6459 42.9842 68.1446 42.9754 67.6039C42.9992 67.5023 43.0185 67.3788 43.0333 67.2334C43.0463 67.0828 43.0618 66.9139 43.0798 66.7265C43.076 66.4238 43.0966 66.0981 43.1415 65.7496C43.1864 65.401 43.247 65.0384 43.3232 64.6616C43.4284 64.1639 43.5396 63.7782 43.6568 63.5044C43.7792 63.2288 43.9163 63.0652 44.0682 63.0134C44.372 62.9099 44.5995 62.8996 44.7505 62.9826C44.905 63.0586 45.0376 63.2589 45.1483 63.5837C45.1768 63.6675 45.2057 63.8038 45.235 63.9926C45.2677 64.1744 45.2993 64.3098 45.3296 64.3988C45.3599 64.4879 45.374 64.6234 45.3717 64.8054C45.3694 64.9875 45.3915 65.1466 45.4379 65.2827C45.4469 65.3264 45.4481 65.3728 45.4414 65.4218L45.4868 65.5292C45.4908 65.6096 45.4897 65.7094 45.4835 65.8284C45.4773 65.9475 45.4652 66.0919 45.447 66.2618C45.455 66.4053 45.4596 66.5732 45.4609 66.7657C45.4622 66.9582 45.4584 67.17 45.4494 67.401C45.4358 67.4641 45.4162 67.5439 45.3906 67.6403C45.3685 67.7297 45.3446 67.8314 45.3192 67.9453C45.3266 68.0187 45.3272 68.1062 45.3209 68.2078C45.3146 68.3093 45.3005 68.431 45.2787 68.5729C45.2687 68.6465 45.25 68.7289 45.2226 68.8201C45.1952 68.9112 45.1645 69.0269 45.1304 69.1672C45.1169 69.2303 45.1051 69.3073 45.0952 69.3984C45.0853 69.4895 45.0738 69.5928 45.0606 69.7084C45.0333 69.8171 44.9948 69.9529 44.9452 70.116C44.8955 70.2791 44.8408 70.4702 44.781 70.6894C44.7168 71.0328 44.6429 71.3649 44.5593 71.6857C44.7324 72.1938 44.9631 72.5449 45.2514 72.739C45.5432 72.926 45.8907 72.9508 46.294 72.8134C46.3202 72.8045 46.3926 72.7594 46.511 72.6781C46.6295 72.5968 46.7905 72.4776 46.9942 72.3205C47.0481 72.2554 47.1096 72.1701 47.1789 72.0646C47.2464 71.9539 47.3226 71.8256 47.4073 71.6798L47.9601 72.2983C47.865 72.4652 47.7707 72.6347 47.6774 72.8068C47.584 72.9789 47.4872 73.1493 47.3868 73.318C47.2708 73.5095 47.1415 73.6705 46.9989 73.8009C46.8545 73.9261 46.7011 74.0164 46.5387 74.0718C46.4549 74.1003 46.3239 74.1362 46.1457 74.1794C45.9657 74.2173 45.8311 74.2515 45.7421 74.2818C45.4488 74.3818 45.165 74.3469 44.8909 74.1773C44.622 74.0058 44.3679 73.6978 44.1287 73.2531C44.1022 73.2095 44.0722 73.173 44.0387 73.1435C44.0105 73.1121 43.9648 73.0809 43.9016 73.0499C43.8567 73.1412 43.8032 73.25 43.7411 73.3764C43.6841 73.5011 43.6107 73.6459 43.5208 73.811L42.9602 73.1953ZM44.6062 65.7503L44.5405 65.7376C44.3436 66.1204 44.212 66.4634 44.1458 66.7666C44.0848 67.068 44.0945 67.3366 44.1748 67.5723C44.1873 67.609 44.1904 67.6781 44.1841 67.7796C44.1812 67.8741 44.1689 68.0011 44.1472 68.1605C44.1187 68.3514 44.093 68.559 44.07 68.7831C44.0704 69.1104 44.0757 69.3746 44.0858 69.5758C44.0959 69.7769 44.1143 69.9168 44.1411 69.9954L44.2097 70.0422C44.255 70.0209 44.2966 69.9541 44.3343 69.8419C44.3721 69.7296 44.406 69.5719 44.4362 69.3687C44.4459 69.2601 44.4687 69.1296 44.5044 68.9771C44.5402 68.8246 44.5783 68.645 44.6189 68.4382C44.6635 68.2944 44.6962 67.9529 44.7171 67.4138C44.738 66.8747 44.734 66.5369 44.7051 66.4006C44.6746 66.2941 44.6529 66.1875 44.64 66.0808C44.6304 65.9671 44.6192 65.857 44.6062 65.7503ZM47.5252 71.2538L48.0796 70.5387C48.0969 70.5036 48.1167 70.4588 48.1391 70.4044C48.1597 70.3448 48.1793 70.2651 48.1979 70.1652C48.2113 70.0846 48.2388 70.0109 48.2804 69.9441C48.3272 69.8756 48.3836 69.8096 48.4497 69.7461C48.4737 69.6795 48.5117 69.5935 48.5635 69.4881C48.6153 69.3828 48.6835 69.2572 48.7683 69.1114C48.8152 69.0603 48.8734 68.9908 48.9428 68.9028C49.0104 68.8096 49.0797 68.6954 49.1505 68.5602C49.4737 67.9473 49.775 67.4675 50.0544 67.1209C50.3391 66.7725 50.6045 66.5564 50.8507 66.4725C50.9869 66.4261 51.0962 66.421 51.1787 66.4572C51.2664 66.4916 51.3282 66.5612 51.3639 66.6659C51.4013 66.7759 51.4134 66.88 51.4001 66.9781C51.392 67.0744 51.3558 67.1656 51.2916 67.2518C51.1928 67.3907 51.0871 67.5436 50.9745 67.7106C50.9281 67.8492 50.8662 68.0019 50.7885 68.1686C50.7091 68.3302 50.6087 68.4988 50.4874 68.6746C50.4582 68.7606 50.4342 68.836 50.4154 68.9009C50.3981 68.936 50.3644 69.0001 50.3143 69.0932C50.2642 69.1863 50.1941 69.2979 50.1039 69.428C50.0908 69.561 50.0264 69.7496 49.9108 69.9936C49.8004 70.2359 49.6423 70.5353 49.4365 70.8919C49.4123 70.9411 49.3754 71.0472 49.3257 71.2103C49.276 71.3734 49.2119 71.5882 49.1331 71.8547L49.2122 71.9067C49.315 71.8307 49.414 71.7268 49.5094 71.5949C49.6048 71.463 49.7034 71.2979 49.8053 71.0994C49.9281 70.8764 50.0275 70.6963 50.1036 70.5593C50.1831 70.4153 50.2411 70.3195 50.2776 70.272C50.3071 70.2386 50.3366 70.2051 50.3661 70.1717C50.3957 70.1383 50.4286 70.0978 50.4651 70.0503C50.6079 69.6801 50.7608 69.3912 50.9239 69.1836C51.0852 68.9708 51.255 68.834 51.4331 68.7733C51.5431 68.7358 51.642 68.7518 51.73 68.8212C51.8162 68.8854 51.894 69.0021 51.9633 69.1714C52.0421 69.4369 52.1225 69.6901 52.2047 69.931C52.2565 70.1005 52.3528 70.2372 52.4935 70.3412C52.6377 70.4383 52.7883 70.46 52.9455 70.4065C52.9926 70.3904 53.0327 70.3621 53.0656 70.3217C53.1039 70.2794 53.1394 70.2293 53.1723 70.1713C53.1929 70.1117 53.2117 70.0556 53.2289 70.003C53.2513 69.9486 53.2737 69.8942 53.296 69.8398C53.3134 69.8221 53.336 69.794 53.3637 69.7553C53.3967 69.7148 53.4253 69.67 53.4495 69.6209C53.5763 69.753 53.6839 69.8713 53.7721 69.9757C53.8637 70.0731 53.9378 70.1618 53.9944 70.242C53.9114 70.393 53.8302 70.5493 53.7507 70.7108C53.6748 70.8654 53.5892 71.0173 53.4939 71.1667C53.3778 71.3407 53.2572 71.4841 53.1319 71.597C53.0049 71.7046 52.868 71.7834 52.7214 71.8333C52.3809 71.9494 52.086 71.9417 51.8366 71.8104C51.5872 71.679 51.3799 71.4223 51.2146 71.0402C51.1985 70.993 51.1746 70.9486 51.1428 70.9068C51.1145 70.858 51.0704 70.8145 51.0107 70.7764C50.9934 70.8115 50.9744 70.8501 50.9537 70.8923C50.9312 70.9292 50.907 70.9783 50.8812 71.0398C50.8309 71.1153 50.7668 71.2103 50.6888 71.3245C50.6161 71.437 50.5304 71.5715 50.4317 71.7279C50.3126 71.9789 50.2107 72.1861 50.1261 72.3494C50.0414 72.5127 49.9818 72.6295 49.9473 72.6997C49.8729 72.8245 49.7801 72.9555 49.669 73.0927C49.5632 73.2282 49.4399 73.3725 49.2992 73.5257C49.2088 73.6208 49.1297 73.6975 49.0618 73.7557C48.9958 73.8191 48.9444 73.8571 48.9077 73.8696C48.6563 73.9552 48.4498 73.9584 48.2883 73.8789C48.125 73.7943 47.9996 73.6236 47.9121 73.367C47.8639 73.2255 47.8498 73.0813 47.8698 72.9341C47.8828 72.7835 47.929 72.6275 48.0085 72.4659C47.9957 72.3943 47.9822 72.3375 47.968 72.2956C47.959 72.2694 47.9422 72.2459 47.9176 72.225C47.8964 72.1972 47.8691 72.1685 47.8357 72.139C47.7792 72.0763 47.7175 72.0068 47.6505 71.9302C47.5765 71.8502 47.498 71.7659 47.4152 71.6772C47.429 71.6491 47.4471 71.5991 47.4693 71.5272C47.4846 71.4518 47.5032 71.3607 47.5252 71.2538ZM53.4416 69.6235C53.4795 69.5288 53.5251 69.4139 53.5784 69.2788C53.6318 69.1436 53.7015 68.9796 53.7878 68.7865C53.7902 68.622 53.7757 68.4252 53.7444 68.1961C53.7166 67.9601 53.6684 67.69 53.5999 67.386C53.5348 67.0749 53.4858 66.8022 53.4527 66.568C53.4231 66.3267 53.4034 66.1317 53.3937 65.983C53.3777 65.1641 53.3665 64.5307 53.36 64.0827C53.3517 63.6295 53.3455 63.3627 53.3415 63.2822C53.3519 62.7466 53.3881 62.2608 53.4499 61.8246C53.5152 61.3814 53.5974 60.988 53.6966 60.6443C53.7259 60.5759 53.7569 60.5039 53.7897 60.4285C53.8207 60.3478 53.8586 60.2618 53.9035 60.1705C54.0669 60.0154 54.2182 59.8674 54.3573 59.7264C54.4373 59.6524 54.5199 59.5862 54.6053 59.5279C54.6959 59.4678 54.7883 59.4217 54.8826 59.3896C55.0293 59.3396 55.166 59.3719 55.2928 59.4866C55.4178 59.596 55.5276 59.7895 55.6222 60.0671C55.6811 60.24 55.7235 60.4418 55.7496 60.6726C55.7738 60.8982 55.7869 61.151 55.7888 61.431C55.7844 61.83 55.7848 62.1485 55.7899 62.3865C55.7932 62.6192 55.7959 62.7645 55.7981 62.8222C55.8146 62.9393 55.8121 63.0951 55.7907 63.2895C55.7692 63.4839 55.7341 63.7239 55.6852 64.0094C55.6282 64.3738 55.581 64.6559 55.5439 64.8556C55.512 65.0536 55.4935 65.171 55.4885 65.2078C55.4643 65.2569 55.4384 65.3096 55.4108 65.3658C55.3866 65.4149 55.3607 65.4676 55.3331 65.5238L55.3947 65.7045C55.3899 65.7763 55.3789 65.8297 55.3616 65.8648C55.3315 66.068 55.2842 66.3239 55.2197 66.6323C55.1605 66.9389 55.0772 67.2947 54.9696 67.6997C54.9028 67.9154 54.8603 68.0994 54.8421 68.2518C54.8238 68.4042 54.8308 68.5275 54.8629 68.6218L55.0985 69.3132C55.1711 69.4405 55.2463 69.5669 55.3242 69.6923C55.4002 69.8126 55.4754 69.9302 55.5497 70.0452C55.633 70.2039 55.7265 70.3153 55.8301 70.3793C55.932 70.4382 56.0301 70.4515 56.1244 70.4194C56.3339 70.348 56.4898 70.2393 56.5921 70.0934C56.6978 69.9404 56.749 69.7476 56.7457 69.5148C56.5847 69.5054 56.4524 69.4774 56.3488 69.4309C56.2487 69.3773 56.1844 69.3086 56.1558 69.2248C56.1641 69.1635 56.1655 69.0987 56.1598 69.0305C56.1593 68.9605 56.1579 68.8879 56.1557 68.8127C56.1484 68.7742 56.1438 68.7349 56.1418 68.6946C56.145 68.6526 56.1394 68.6019 56.125 68.5425C56.216 68.0204 56.3236 67.6154 56.4476 67.3276C56.5699 67.0345 56.7096 66.8612 56.8668 66.8077C56.9035 66.7952 56.9664 66.7825 57.0555 66.7697C57.1429 66.7516 57.2076 66.7354 57.2495 66.7211C57.2809 66.7104 57.328 66.6856 57.3907 66.6467C57.4517 66.6025 57.4979 66.5751 57.5293 66.5644C57.6183 66.534 57.6919 66.544 57.75 66.5944C57.8063 66.6395 57.8523 66.7145 57.888 66.8192C57.9647 67.0445 57.9823 67.3103 57.9406 67.6169C57.8989 67.9234 57.8843 68.095 57.8968 68.1317C57.9075 68.1631 57.94 68.19 57.9944 68.2124C58.0223 68.1912 58.0484 68.1648 58.0726 68.1331C58.1022 68.0997 58.1273 68.0619 58.148 68.0197C58.1922 68.0807 58.2504 68.1486 58.3226 68.2233C58.4001 68.2963 58.4847 68.3815 58.5763 68.4789C58.615 68.5066 58.6449 68.5344 58.6661 68.5623C58.6855 68.5849 58.6997 68.6093 58.7086 68.6355C58.5654 68.9357 58.4305 69.1746 58.3039 69.3522C58.1773 69.5298 58.0582 69.6435 57.9466 69.6932C57.9099 69.7057 57.8654 69.7209 57.813 69.7387C57.7588 69.7513 57.6942 69.7675 57.6191 69.7873C57.5761 69.9013 57.5218 70.0338 57.4563 70.1847C57.3961 70.3339 57.3299 70.5084 57.2577 70.7084C57.2178 70.7629 57.1693 70.835 57.1122 70.9247C57.0532 71.009 56.9892 71.1127 56.92 71.2357C56.8198 71.4394 56.7054 71.6011 56.5767 71.721C56.4551 71.8443 56.3183 71.9318 56.1664 71.9836C56.0983 72.0068 56.0266 72.0195 55.9514 72.0218C55.8832 72.0275 55.7982 72.0184 55.6966 71.9946C55.623 71.9846 55.5397 71.9633 55.4468 71.9306C55.3608 71.9015 55.2634 71.8645 55.1546 71.8197C54.941 71.5359 54.7642 71.2658 54.6242 71.0095C54.4843 70.7532 54.3723 70.5019 54.2884 70.2558C54.2742 70.2139 54.2573 70.1816 54.2379 70.159C54.222 70.1293 54.2026 70.1067 54.1797 70.0911L54.101 70.0916L54.054 70.1339L54.0022 70.2393C53.921 70.1383 53.8337 70.0365 53.7403 69.9339C53.6469 69.8313 53.5473 69.7278 53.4416 69.6235ZM54.9027 61.996C54.8937 61.9699 54.8814 61.9507 54.8655 61.9385C54.8532 61.9194 54.8338 61.9055 54.8075 61.8969C54.7743 61.9024 54.7501 61.9516 54.735 62.0444C54.7181 62.132 54.7154 62.2528 54.7269 62.4067C54.7417 62.5186 54.7365 62.6578 54.7113 62.8242C54.6862 62.9906 54.649 63.1904 54.5998 63.4234C54.5574 63.625 54.5248 63.8466 54.5019 64.0882C54.4772 64.3246 54.4588 64.5794 54.4466 64.8525C54.4225 65.1764 54.4183 65.4555 54.4338 65.6899C54.4494 65.9243 54.4795 66.107 54.5241 66.2379L54.5639 66.3033C54.5987 66.2681 54.632 66.1427 54.6638 65.9273C54.7008 65.71 54.739 65.4018 54.7784 65.0025C54.8215 64.6487 54.8477 64.3738 54.8569 64.1777C54.8713 63.9799 54.8765 63.8495 54.8726 63.7865C54.8663 63.6308 54.8599 63.4488 54.8532 63.2406C54.8466 63.0324 54.8407 62.8006 54.8355 62.5451C54.8575 62.4382 54.8761 62.3471 54.8914 62.2717C54.9085 62.2191 54.9178 62.1692 54.9193 62.1219C54.9207 62.0747 54.9152 62.0327 54.9027 61.996ZM58.1402 68.0224C58.1643 67.9733 58.1875 67.9127 58.2098 67.8408C58.2251 67.7655 58.2464 67.6822 58.2738 67.591L58.7369 66.9684C58.7799 66.8544 58.8541 66.7034 58.9596 66.5154C59.0633 66.3223 59.1939 66.0878 59.3513 65.812C59.3578 65.7454 59.3774 65.6657 59.41 65.5727C59.4461 65.4727 59.4936 65.3718 59.5524 65.2699C59.6025 65.1768 59.6544 65.0889 59.7081 65.0063C59.76 64.9185 59.8076 64.835 59.8508 64.756C59.9026 64.6507 59.9492 64.5471 59.9905 64.4453C60.0371 64.3418 60.0845 64.2408 60.1329 64.1425C60.1917 64.0406 60.2585 63.9535 60.3332 63.8813C60.408 63.809 60.4978 63.7551 60.6025 63.7194C60.7178 63.6801 60.8096 63.6663 60.8779 63.6781C60.9497 63.6829 60.9971 63.7106 61.0202 63.7612C61.0089 63.8995 60.9949 64.0387 60.9784 64.1788L61.0496 64.2335C61.2497 64.0659 61.4081 63.9388 61.5248 63.8523C61.6415 63.7658 61.7181 63.7163 61.7548 63.7038C62.1372 63.5735 62.4628 63.5941 62.7317 63.7655C63.0041 63.9299 63.2206 64.2479 63.3812 64.7193C63.4116 64.8083 63.4368 64.9167 63.4569 65.0443C63.477 65.1719 63.4876 65.3145 63.4886 65.472C63.4898 65.6469 63.4768 65.7975 63.4496 65.9237C63.4277 66.0481 63.3986 66.1428 63.3623 66.2078C63.4064 66.2687 63.447 66.3105 63.4839 66.333C63.519 66.3502 63.5575 66.3517 63.5994 66.3375C63.6413 66.3232 63.6787 66.2958 63.7117 66.2553C63.7499 66.2131 63.7915 66.1551 63.8366 66.0813C63.9282 66.1786 64.019 66.2822 64.109 66.3918C64.2024 66.4944 64.2959 66.5971 64.3893 66.6997C64.3236 66.8156 64.2596 66.9281 64.1973 67.037C64.135 67.1459 64.0666 67.254 63.9921 67.3612C63.9055 67.5018 63.8153 67.6144 63.7214 67.699C63.6309 67.7766 63.5333 67.8333 63.4285 67.869C63.308 67.91 63.1987 67.9151 63.1005 67.8843C63.0023 67.8534 62.9117 67.7937 62.8289 67.705C62.7569 67.9225 62.6515 68.1367 62.5129 68.3476C62.3778 68.5515 62.2137 68.739 62.0206 68.91C61.911 69.0175 61.8075 69.1083 61.71 69.1824C61.616 69.2496 61.5244 69.2983 61.4354 69.3287C61.4092 69.3376 61.3604 69.3659 61.2889 69.4136C61.2227 69.4596 61.1661 69.4906 61.1189 69.5066C60.8204 69.6084 60.5078 69.5746 60.1811 69.4053C59.8545 69.236 59.6385 68.9968 59.5332 68.6877C59.4904 68.562 59.463 68.3872 59.451 68.1633C59.4372 67.9341 59.424 67.8012 59.4116 67.7645C59.3991 67.7279 59.3761 67.7035 59.3428 67.6915C59.3129 67.6725 59.277 67.6701 59.2351 67.6844C59.209 67.6933 59.1595 67.754 59.0867 67.8665C59.014 67.979 58.9109 68.1398 58.7776 68.3489C58.769 68.3752 58.7614 68.4129 58.7547 68.4619C58.748 68.511 58.7301 68.5697 58.7008 68.6382C58.6178 68.532 58.5296 68.4276 58.4362 68.3249C58.341 68.2171 58.2423 68.1162 58.1402 68.0224ZM61.4294 65.2967C61.405 65.3109 61.3756 65.3531 61.341 65.4233C61.31 65.4865 61.2833 65.5628 61.2612 65.6522C61.2289 65.7977 61.1897 65.9572 61.1436 66.1307C61.1074 66.2132 61.0615 66.2844 61.0059 66.3443C60.9538 66.3971 60.8885 66.4457 60.81 66.49C60.7594 66.5131 60.7223 66.5842 60.6986 66.7033C60.6731 66.8173 60.6628 66.9757 60.6676 67.1787C60.6654 67.3607 60.6708 67.5138 60.6838 67.6379C60.6969 67.7621 60.7168 67.8635 60.7436 67.942C60.7936 68.0887 60.8677 68.1862 60.9661 68.2345C61.0644 68.2829 61.1895 68.2812 61.3414 68.2294C61.5824 68.1473 61.78 68.0069 61.9345 67.8081C62.0923 67.6023 62.2148 67.3355 62.3019 67.0076C62.3518 66.8795 62.3982 66.7585 62.4412 66.6444C62.4724 66.5987 62.4895 66.5374 62.4925 66.4604C62.4937 66.3781 62.4895 66.2801 62.48 66.1664L62.4688 65.6704C62.3681 65.5293 62.2817 65.4214 62.2094 65.3466C62.1354 65.2666 62.0738 65.2233 62.0248 65.2166C61.9932 65.2098 61.9303 65.2137 61.8359 65.2284C61.7397 65.2378 61.6042 65.2605 61.4294 65.2967ZM63.8287 66.0839C63.875 65.9454 63.9196 65.8016 63.9623 65.6525C64.2376 65.208 64.4466 64.8006 64.5894 64.4304C64.7356 64.0531 64.8209 63.7201 64.8452 63.4311L64.6381 63.0808C64.6616 62.9266 64.7766 62.715 64.983 62.4459C65.1947 62.1749 65.3844 62.0109 65.552 61.9538C65.7301 61.8931 65.8972 61.8946 66.0534 61.9583C66.2148 62.0203 66.3728 62.0892 66.5273 62.1652C66.5974 62.1822 66.6491 62.1967 66.6824 62.2088C66.9455 62.2945 67.1767 62.4583 67.3761 62.7002C67.5755 62.9422 67.743 63.2622 67.8786 63.6603C67.95 63.8698 67.9715 64.1986 67.943 64.6468C67.9127 65.0898 67.9314 65.4108 67.9993 65.6098C68.0082 65.636 68.0232 65.6543 68.0443 65.6647C68.0706 65.6732 68.0994 65.6722 68.1309 65.6615C68.199 65.6382 68.2703 65.5818 68.345 65.492C68.4179 65.397 68.4914 65.2784 68.5657 65.1362C68.7505 64.7692 68.8673 64.5628 68.916 64.517C68.9629 64.4659 69.0166 64.392 69.0772 64.2954C69.1548 64.3859 69.243 64.4815 69.3417 64.5824C69.4403 64.6832 69.5391 64.7928 69.6379 64.9111C69.605 64.9691 69.567 65.0376 69.5237 65.1167C69.4857 65.1939 69.4373 65.2835 69.3785 65.3854C69.2451 65.577 69.0664 65.8162 68.8426 66.1029C68.6222 66.3827 68.354 66.7108 68.038 67.0874C67.9565 67.1912 67.8547 67.2873 67.7328 67.3756C67.5128 67.4506 67.3371 67.4754 67.2057 67.45C67.0725 67.4194 66.9809 67.3308 66.9309 67.1841C66.9113 67.1265 66.8994 67.0574 66.8954 66.9769C66.8948 66.8895 66.9003 66.794 66.9119 66.6907C66.9201 66.6119 66.9309 66.5322 66.9444 66.4516C66.9561 66.3658 66.9625 66.2818 66.9637 66.1995C66.9665 65.8302 66.9485 65.4943 66.9097 65.1919C66.8762 64.8876 66.8211 64.6228 66.7443 64.3976C66.6497 64.12 66.5329 63.923 66.3939 63.8067C66.2601 63.6886 66.1032 63.6485 65.9232 63.6864C65.8294 63.7886 65.734 63.9205 65.6371 64.0821C65.5402 64.2438 65.4504 64.4351 65.3679 64.6562C65.2803 64.8965 65.1967 65.0974 65.1173 65.259C65.0379 65.4205 64.966 65.5356 64.9017 65.6043C64.8814 65.6989 64.8358 65.8138 64.7649 65.9491C64.6941 66.0843 64.5919 66.239 64.4583 66.4131C64.4549 66.4376 64.4499 66.4744 64.4433 66.5235C64.4366 66.5725 64.4186 66.6312 64.3893 66.6997C64.3063 66.5935 64.219 66.4917 64.1274 66.3943C64.034 66.2917 63.9344 66.1882 63.8287 66.0839ZM69.2109 63.864L69.7652 63.1489C69.7825 63.1138 69.8023 63.069 69.8247 63.0146C69.8453 62.955 69.8649 62.8753 69.8835 62.7754C69.8969 62.6948 69.9244 62.6211 69.966 62.5543C70.0128 62.4858 70.0692 62.4198 70.1353 62.3563C70.1593 62.2897 70.1973 62.2037 70.2491 62.0983C70.3009 61.993 70.3692 61.8674 70.4539 61.7216C70.5008 61.6705 70.559 61.601 70.6284 61.513C70.696 61.4198 70.7653 61.3056 70.8361 61.1704C71.1593 60.5575 71.4606 60.0777 71.74 59.7311C72.0247 59.3827 72.2901 59.1666 72.5363 59.0827C72.6725 59.0363 72.7818 59.0312 72.8643 59.0674C72.9521 59.1018 73.0138 59.1714 73.0495 59.2761C73.087 59.3861 73.099 59.4902 73.0857 59.5882C73.0776 59.6846 73.0414 59.7758 72.9773 59.862C72.8784 60.0009 72.7727 60.1538 72.6601 60.3208C72.6137 60.4594 72.5518 60.6121 72.4741 60.7788C72.3947 60.9404 72.2943 61.109 72.173 61.2848C72.1438 61.3708 72.1198 61.4462 72.101 61.5111C72.0838 61.5462 72.0501 61.6103 71.9999 61.7034C71.9498 61.7965 71.8797 61.908 71.7895 62.0381C71.7764 62.1712 71.7121 62.3598 71.5964 62.6038C71.4861 62.846 71.3279 63.1455 71.1221 63.5021C71.0979 63.5513 71.061 63.6574 71.0113 63.8205C70.9617 63.9835 70.8975 64.1984 70.8188 64.4649L70.8978 64.5168C71.0006 64.4409 71.0996 64.337 71.195 64.2051C71.2904 64.0732 71.389 63.9081 71.491 63.7096C71.6137 63.4866 71.7131 63.3065 71.7892 63.1695C71.8688 63.0255 71.9267 62.9297 71.9632 62.8822C71.9927 62.8488 72.0222 62.8153 72.0518 62.7819C72.0813 62.7484 72.1143 62.708 72.1507 62.6605C72.2935 62.2903 72.4464 62.0014 72.6095 61.7938C72.7709 61.581 72.9406 61.4442 73.1187 61.3835C73.2287 61.346 73.3277 61.362 73.4156 61.4314C73.5018 61.4956 73.5796 61.6123 73.649 61.7816C73.7277 62.0471 73.8082 62.3003 73.8903 62.5412C73.9422 62.7106 74.0384 62.8474 74.1791 62.9514C74.3233 63.0485 74.4739 63.0702 74.6311 63.0167C74.6782 63.0006 74.7183 62.9723 74.7513 62.9319C74.7895 62.8896 74.825 62.8395 74.8579 62.7815C74.8785 62.7219 74.8974 62.6658 74.9145 62.6132C74.9369 62.5588 74.9593 62.5044 74.9817 62.45C74.999 62.4323 75.0216 62.4042 75.0493 62.3655C75.0823 62.325 75.1109 62.2802 75.1351 62.2311C75.262 62.3632 75.3695 62.4815 75.4577 62.5859C75.5493 62.6833 75.6234 62.772 75.68 62.8522C75.597 63.0032 75.5158 63.1595 75.4364 63.321C75.3604 63.4756 75.2748 63.6275 75.1795 63.7769C75.0634 63.9509 74.9428 64.0943 74.8175 64.2072C74.6905 64.3148 74.5536 64.3936 74.407 64.4435C74.0665 64.5596 73.7716 64.5519 73.5222 64.4206C73.2728 64.2892 73.0655 64.0325 72.9002 63.6504C72.8841 63.6032 72.8602 63.5587 72.8284 63.517C72.8001 63.4681 72.7561 63.4247 72.6963 63.3866C72.679 63.4217 72.66 63.4603 72.6393 63.5025C72.6168 63.5394 72.5926 63.5885 72.5668 63.65C72.5166 63.7255 72.4524 63.8205 72.3745 63.9347C72.3017 64.0472 72.216 64.1817 72.1173 64.3381C71.9982 64.5891 71.8963 64.7963 71.8117 64.9596C71.727 65.1229 71.6674 65.2397 71.6329 65.3099C71.5585 65.4347 71.4657 65.5657 71.3546 65.7029C71.2488 65.8384 71.1255 65.9827 70.9848 66.1359C70.8944 66.231 70.8153 66.3076 70.7474 66.3659C70.6814 66.4293 70.63 66.4673 70.5933 66.4798C70.3419 66.5654 70.1354 66.5686 69.9739 66.4891C69.8106 66.4045 69.6852 66.2338 69.5977 65.9772C69.5495 65.8357 69.5354 65.6914 69.5555 65.5443C69.5685 65.3937 69.6147 65.2377 69.6941 65.0761C69.6814 65.0045 69.6679 64.9477 69.6536 64.9058C69.6446 64.8796 69.6279 64.8561 69.6032 64.8352C69.582 64.8074 69.5547 64.7787 69.5213 64.7492C69.4649 64.6865 69.4031 64.617 69.3361 64.5404C69.2621 64.4604 69.1837 64.376 69.1008 64.2874C69.1146 64.2593 69.1327 64.2093 69.1549 64.1374C69.1702 64.062 69.1888 63.9709 69.2109 63.864ZM75.1272 62.2337L75.1372 62.1602C75.1544 62.1076 75.1784 62.0409 75.2094 61.9602C75.2351 61.8813 75.2677 61.7883 75.3073 61.6813C75.5614 61.2088 75.7827 60.6745 75.9712 60.0782C76.1632 59.4749 76.3258 58.8027 76.4591 58.0616C76.4814 57.9897 76.5026 57.8977 76.5229 57.7855C76.5431 57.6734 76.5606 57.5359 76.5753 57.3731C76.5645 57.3416 76.5487 57.3207 76.5276 57.3104C76.5065 57.3 76.4777 57.3011 76.441 57.3136C76.4096 57.3243 76.3607 57.3526 76.2946 57.3986C76.2318 57.4375 76.1821 57.4632 76.1454 57.4757L75.1633 57.8104C75.1214 57.8247 75.0498 57.8461 74.9485 57.8748C74.8524 57.9017 74.7834 57.9223 74.7415 57.9366C74.6802 57.9282 74.6233 57.9242 74.5708 57.9246C74.5218 57.9179 74.4727 57.9112 74.4237 57.9046C74.3537 57.905 74.295 57.8958 74.2476 57.8769C74.2037 57.8509 74.1737 57.8144 74.1576 57.7672C74.0434 57.432 73.99 57.1637 73.9974 56.9624C74.01 56.7593 74.0897 56.6328 74.2364 56.5828C74.383 56.5328 74.5219 56.4943 74.653 56.4672C74.7875 56.433 74.9081 56.4095 75.0147 56.3965C75.088 56.354 75.1559 56.3133 75.2187 56.2744C75.3601 56.2262 75.4824 56.1904 75.5855 56.1669C75.6885 56.1435 75.769 56.1307 75.8267 56.1286C75.8894 56.0897 75.9505 56.0542 76.0097 56.0224C76.0725 55.9834 76.1405 55.9427 76.2137 55.9002L76.4997 55.8905C76.6759 55.807 76.7823 55.4843 76.8188 54.9223C76.8605 54.3585 76.9992 54.0365 77.2349 53.9562C77.3607 53.9133 77.4709 53.9196 77.5658 53.975C77.6607 54.0303 77.734 54.134 77.7858 54.2859C77.8268 54.4063 77.8446 54.5786 77.8391 54.8026C77.837 55.0196 77.8477 55.1797 77.8712 55.2828C77.8888 55.3002 77.9099 55.3193 77.9346 55.3401C77.9626 55.3539 78.0004 55.3703 78.0478 55.3892C78.0863 55.3995 78.1198 55.429 78.1481 55.4778C78.1799 55.5196 78.2083 55.5772 78.2333 55.6505C78.3404 55.9648 78.4076 56.2137 78.4351 56.3973C78.466 56.5738 78.451 56.6754 78.3899 56.7021L77.8931 56.9941C77.9005 57.0501 77.9097 57.12 77.9208 57.204C77.93 57.2826 77.9385 57.3762 77.9463 57.4847C77.9465 57.7769 77.9603 58.1434 77.9877 58.5843C78.0152 59.0251 78.0545 59.5437 78.1057 60.1401C78.1719 60.6087 78.2278 60.9872 78.2734 61.2756C78.3244 61.5623 78.3659 61.7527 78.398 61.847C78.4266 61.9308 78.4611 61.9892 78.5016 62.0222C78.542 62.0552 78.5884 62.0627 78.6408 62.0449C78.6723 62.0342 78.759 61.9199 78.901 61.7019C79.0483 61.4822 79.2466 61.1632 79.4958 60.7451L80.0485 61.3635C80.0158 61.439 79.9657 61.532 79.8981 61.6428C79.8306 61.7535 79.7466 61.8756 79.646 62.0093C79.6132 62.0848 79.5701 62.1726 79.5165 62.2727C79.4611 62.3675 79.4023 62.4782 79.3402 62.6046C79.2816 62.7415 79.223 62.8784 79.1644 63.0153C79.1111 63.1504 79.0542 63.2838 78.9939 63.4154C78.9146 63.5944 78.8245 63.7333 78.7236 63.832C78.6246 63.9359 78.5227 64.0057 78.4179 64.0414C78.1874 64.1199 77.9914 64.1107 77.8297 64.0138C77.6733 63.9151 77.5478 63.7269 77.4532 63.4493C77.3497 63.1455 77.2709 62.88 77.2169 62.6529C77.1611 62.4205 77.1336 62.2282 77.1343 62.076C77.141 62.0269 77.1442 61.9849 77.1439 61.9499C77.1261 61.8975 77.1099 61.8241 77.0952 61.7297C77.0806 61.6353 77.0632 61.5243 77.0431 61.3967C77.0049 61.1817 76.9694 60.9658 76.9364 60.749C76.9512 60.6037 76.9659 60.4496 76.9806 60.2867C76.9717 60.2605 76.9427 60.2441 76.8936 60.2374L76.8311 60.3114C76.7954 60.4638 76.7388 60.6322 76.6613 60.8165C76.5819 60.9955 76.4817 61.1904 76.3607 61.4012C76.181 61.7489 75.997 62.1011 75.8086 62.4576C75.8018 62.4891 75.7864 62.5382 75.7623 62.6049C75.7383 62.6715 75.7134 62.7531 75.6878 62.8495C75.6402 62.7956 75.582 62.7277 75.5132 62.6459C75.4374 62.5607 75.3571 62.4623 75.2724 62.3509C75.2512 62.323 75.2283 62.2987 75.2036 62.2778C75.179 62.257 75.1535 62.2423 75.1272 62.2337ZM79.4801 60.7504L79.5085 60.6794L79.5053 60.5928C79.5806 60.3507 79.7438 60.0145 79.9946 59.5841C80.2437 59.1484 80.4034 58.8105 80.4735 58.5703C80.4973 58.4686 80.537 58.3879 80.5926 58.328C80.6482 58.2681 80.7101 58.2266 80.7782 58.2034C80.9615 58.1409 81.1321 58.1354 81.2899 58.1868C81.446 58.233 81.5762 58.3407 81.6806 58.5097C81.7726 58.6596 81.8629 58.813 81.9514 58.9699C82.0382 59.1216 82.1206 59.2777 82.1987 59.4381C82.271 59.5304 82.37 59.675 82.4956 59.8719C82.6193 60.0636 82.6997 60.1707 82.7366 60.1932C82.7806 60.2366 82.8333 60.2625 82.8946 60.2709C82.9541 60.274 83.0232 60.2621 83.1017 60.2354C83.196 60.2032 83.2876 60.1545 83.3764 60.0892C83.4634 60.0186 83.545 59.9235 83.6212 59.804C83.6766 59.7091 83.7346 59.6134 83.7952 59.5167C83.8592 59.4131 83.9216 59.3129 83.9822 59.2162L84.5428 59.832C84.4875 59.9444 84.4079 60.0796 84.304 60.2378C84.2035 60.389 84.0805 60.5683 83.9348 60.7758C83.7736 61.0061 83.6305 61.1865 83.5053 61.3168C83.3784 61.4419 83.2757 61.5178 83.1971 61.5446C82.7204 61.707 82.3927 61.7573 82.2137 61.6955C82.0348 61.6337 81.7733 61.3809 81.429 60.9369C81.3938 60.9021 81.3454 60.8631 81.2839 60.8197C81.2224 60.7764 81.152 60.7244 81.0729 60.6637C80.9689 60.5646 80.8836 60.4943 80.8168 60.4527C80.7483 60.406 80.6983 60.3879 80.6668 60.3986C80.583 60.4272 80.49 60.5232 80.3879 60.6866C80.2839 60.8448 80.1682 61.0713 80.0407 61.3662C79.9913 61.307 79.9322 61.2365 79.8634 61.1547C79.7893 61.0747 79.71 60.979 79.6252 60.8676C79.604 60.8397 79.5811 60.8154 79.5565 60.7945C79.5318 60.7737 79.5064 60.759 79.4801 60.7504ZM80.6518 53.432C80.7828 53.3874 80.886 53.3814 80.9614 53.4142C81.0421 53.4451 81.0995 53.5104 81.1334 53.6099C81.1519 53.7673 81.1677 53.8993 81.1806 54.0059C81.1925 54.2124 81.198 54.383 81.1972 54.5177C81.2016 54.6507 81.2022 54.7469 81.1991 54.8064C81.1912 54.9378 81.1606 55.0622 81.1071 55.1798C81.0571 55.2904 80.9861 55.3994 80.894 55.5067C80.8021 55.6316 80.7205 55.7266 80.6492 55.7919C80.5813 55.8501 80.5308 55.8819 80.4976 55.8874C80.405 55.9072 80.3159 55.9288 80.2303 55.9522C80.1481 55.9685 80.0678 55.99 79.9892 56.0168C79.9086 56.0033 79.8295 55.9513 79.7519 55.8609C79.6795 55.7686 79.613 55.6334 79.5523 55.4553C79.4988 55.2982 79.5261 55.0696 79.6344 54.7696C79.7461 54.4627 79.8726 54.2763 80.0139 54.2106C80.0654 54.0703 80.1274 53.9089 80.1996 53.7264C80.2395 53.6719 80.2978 53.6198 80.3745 53.5703C80.4494 53.5156 80.5418 53.4695 80.6518 53.432ZM83.9743 59.2189C83.9985 59.1697 84.0217 59.1092 84.044 59.0373C84.0592 58.962 84.0806 58.8787 84.1079 58.7875L84.571 58.1649C84.614 58.0509 84.6883 57.8999 84.7938 57.7119C84.8975 57.5187 85.028 57.2842 85.1854 57.0084C85.192 56.9419 85.2116 56.8621 85.2442 56.7692C85.2803 56.6692 85.3277 56.5682 85.3866 56.4664C85.4367 56.3733 85.4886 56.2854 85.5423 56.2028C85.5942 56.115 85.6418 56.0315 85.685 55.9525C85.7368 55.8471 85.7834 55.7436 85.8247 55.6418C85.8712 55.5382 85.9187 55.4373 85.967 55.339C86.0259 55.2371 86.0926 55.15 86.1674 55.0778C86.2422 55.0055 86.3319 54.9515 86.4367 54.9158C86.5519 54.8766 86.6437 54.8628 86.7121 54.8746C86.7838 54.8794 86.8313 54.9071 86.8544 54.9577C86.843 55.096 86.8291 55.2352 86.8125 55.3753L86.8838 55.43C87.0839 55.2624 87.2423 55.1353 87.359 55.0488C87.4756 54.9623 87.5523 54.9128 87.589 54.9003C87.9714 54.77 88.297 54.7905 88.5659 54.962C88.8382 55.1264 89.0547 55.4444 89.2154 55.9158C89.2457 56.0048 89.2709 56.1132 89.2911 56.2408C89.3112 56.3684 89.3217 56.511 89.3228 56.6684C89.324 56.8434 89.311 56.994 89.2838 57.1202C89.2619 57.2446 89.2328 57.3393 89.1964 57.4043C89.2406 57.4652 89.2811 57.507 89.318 57.5295C89.3531 57.5467 89.3917 57.5482 89.4336 57.534C89.4755 57.5197 89.5129 57.4923 89.5459 57.4518C89.5841 57.4096 89.6257 57.3515 89.6707 57.2777C89.7624 57.3751 89.8532 57.4787 89.9432 57.5883C90.0366 57.6909 90.13 57.7936 90.2235 57.8962C90.1578 58.0121 90.0938 58.1245 90.0315 58.2335C89.9692 58.3424 89.9008 58.4505 89.8263 58.5577C89.7397 58.6983 89.6495 58.8109 89.5555 58.8955C89.465 58.9731 89.3674 59.0298 89.2627 59.0655C89.1422 59.1065 89.0328 59.1116 88.9346 59.0808C88.8364 59.0499 88.7459 58.9902 88.6631 58.9015C88.591 59.119 88.4857 59.3332 88.3471 59.5441C88.212 59.748 88.0479 59.9355 87.8547 60.1065C87.7452 60.214 87.6417 60.3048 87.5442 60.3789C87.4501 60.4461 87.3586 60.4948 87.2695 60.5252C87.2434 60.5341 87.1945 60.5624 87.1231 60.6101C87.0569 60.6561 87.0002 60.6871 86.9531 60.7031C86.6545 60.8049 86.3419 60.7711 86.0153 60.6018C85.6887 60.4325 85.4727 60.1933 85.3674 59.8842C85.3245 59.7585 85.2971 59.5837 85.2851 59.3598C85.2714 59.1306 85.2582 58.9977 85.2457 58.961C85.2332 58.9244 85.2103 58.9 85.177 58.888C85.1471 58.869 85.1112 58.8666 85.0693 58.8808C85.0431 58.8898 84.9937 58.9505 84.9209 59.063C84.8482 59.1754 84.7451 59.3363 84.6118 59.5454C84.6032 59.5717 84.5956 59.6094 84.5889 59.6584C84.5822 59.7075 84.5642 59.7662 84.5349 59.8347C84.452 59.7285 84.3638 59.6241 84.2703 59.5214C84.1751 59.4136 84.0764 59.3127 83.9743 59.2189ZM87.2636 56.4932C87.2392 56.5074 87.2097 56.5496 87.1752 56.6198C87.1441 56.683 87.1175 56.7593 87.0954 56.8487C87.0631 56.9942 87.0239 57.1537 86.9778 57.3272C86.9416 57.4097 86.8957 57.4809 86.8401 57.5408C86.788 57.5936 86.7227 57.6422 86.6442 57.6865C86.5936 57.7095 86.5565 57.7807 86.5328 57.8998C86.5073 58.0137 86.497 58.1722 86.5018 58.3752C86.4995 58.5572 86.5049 58.7103 86.518 58.8344C86.5311 58.9586 86.551 59.06 86.5778 59.1385C86.6278 59.2852 86.7019 59.3827 86.8002 59.431C86.8986 59.4794 87.0237 59.4777 87.1756 59.4259C87.4165 59.3438 87.6142 59.2034 87.7686 59.0046C87.9265 58.7988 88.049 58.5319 88.136 58.2041C88.1859 58.076 88.2324 57.955 88.2754 57.8409C88.3066 57.7952 88.3236 57.7339 88.3266 57.6568C88.3278 57.5746 88.3237 57.4766 88.3142 57.3629L88.303 56.8669C88.2023 56.7258 88.1158 56.6179 88.0436 56.5431C87.9695 56.4631 87.908 56.4198 87.859 56.4131C87.8274 56.4063 87.7644 56.4102 87.67 56.4249C87.5738 56.4343 87.4384 56.457 87.2636 56.4932ZM89.6629 57.2804C89.6713 57.2366 89.6867 57.1875 89.7091 57.1331C89.7245 57.0753 89.745 57.0069 89.7708 56.928C89.8089 56.8682 89.8564 56.7848 89.9135 56.6776C89.9705 56.5705 90.0336 56.4467 90.1026 56.3062C90.1612 56.1693 90.2327 56.0017 90.3171 55.8034C90.3998 55.5999 90.5005 55.3551 90.6193 55.069C90.6728 54.9514 90.7392 54.8031 90.8185 54.6241C90.896 54.4398 90.9882 54.2213 91.095 53.9686C91.1828 53.7458 91.2962 53.5639 91.4352 53.423C91.5743 53.282 91.7381 53.1794 91.9267 53.1152C92.1152 53.0509 92.2746 53.0639 92.4047 53.154C92.533 53.2389 92.6355 53.394 92.7123 53.6192C92.7533 53.7397 92.7874 53.9853 92.8143 54.3561C92.8413 54.727 92.856 55.2247 92.8584 55.8495C92.847 55.9703 92.8364 56.085 92.8266 56.1935C92.8184 56.2724 92.818 56.3397 92.8253 56.3957C92.8327 56.4516 92.8409 56.4927 92.8498 56.5189C92.8605 56.5503 92.8922 56.5834 92.9449 56.618C92.9658 56.5934 92.9822 56.5644 92.9942 56.5311C93.0115 56.4959 93.0296 56.4547 93.0485 56.4073C93.0637 56.3145 93.0989 56.2119 93.1541 56.0995C93.2128 55.9801 93.2845 55.8475 93.3693 55.7017C93.3861 55.5966 93.4169 55.4896 93.4617 55.3808C93.5099 55.265 93.5687 55.1543 93.638 55.0489C93.6518 55.0208 93.6664 54.9778 93.6817 54.92C93.7023 54.8603 93.7273 54.7963 93.7566 54.7278C93.8015 54.6365 93.8585 54.5382 93.9278 54.4327C93.9971 54.3272 94.0813 54.2138 94.1802 54.0924C94.2966 53.9709 94.4027 53.8704 94.4984 53.791C94.5994 53.7098 94.6918 53.655 94.7756 53.6264C94.938 53.5711 95.0954 53.5613 95.2479 53.597C95.4004 53.6327 95.5497 53.7192 95.6959 53.8565C95.9113 54.1456 96.1135 54.4129 96.3023 54.6583C96.4153 54.8011 96.5192 54.9001 96.6141 54.9555C96.7142 55.0091 96.8088 55.0207 96.8978 54.9904C96.9659 54.9672 97.0217 54.9335 97.0651 54.8895C97.1138 54.8437 97.1528 54.7865 97.1821 54.7181L97.7427 55.3338C97.6787 55.4375 97.6129 55.5447 97.5454 55.6554C97.4779 55.7661 97.4121 55.8733 97.348 55.977C97.265 56.128 97.1792 56.245 97.0905 56.3278C97 56.4054 96.9024 56.4621 96.7976 56.4978C96.6772 56.5388 96.553 56.5519 96.4251 56.537C96.2973 56.5221 96.1762 56.4757 96.062 56.3977C96.0058 56.3701 95.9275 56.312 95.8272 56.2234C95.725 56.1296 95.6035 56.0131 95.4626 55.8741C95.3713 55.8292 95.2624 55.7669 95.1358 55.6873C95.0128 55.6006 94.8677 55.5009 94.7007 55.3883L94.622 55.3888C94.5332 55.4542 94.4497 55.5352 94.3716 55.632C94.2987 55.727 94.2243 55.843 94.1482 55.98C93.9839 56.2698 93.8583 56.4588 93.7713 56.5469C93.6844 56.6349 93.6342 56.7193 93.6208 56.7999C93.5903 56.9506 93.5199 57.1558 93.4096 57.4155C93.2994 57.6753 93.1571 57.9868 92.9828 58.3503C92.9379 58.4416 92.893 58.5329 92.8481 58.6242C92.8014 58.7102 92.7547 58.7963 92.7081 58.8823C92.6596 58.9632 92.5944 59.0292 92.5125 59.0805C92.4376 59.1353 92.3478 59.1805 92.243 59.2162C92.0335 59.2876 91.8942 59.2561 91.825 59.1219C91.7593 58.9805 91.6937 58.8392 91.628 58.6979C91.6316 58.4511 91.6269 58.1458 91.614 57.7819C91.601 57.418 91.5851 56.9937 91.5661 56.5091C91.5572 56.4829 91.5534 56.4462 91.5549 56.3989C91.5597 56.3446 91.5628 56.2764 91.564 56.1941C91.567 56.1171 91.5657 56.0532 91.5601 56.0025C91.5527 55.9466 91.5428 55.9002 91.5303 55.8636C91.5178 55.8269 91.4949 55.8026 91.4615 55.7905C91.4282 55.7785 91.3827 55.7823 91.3251 55.802C91.2727 55.8198 91.2127 55.8753 91.1451 55.9685C91.0827 56.0599 91.0145 56.1943 90.9404 56.3715C90.8473 56.5786 90.7714 56.7419 90.7127 56.8613C90.654 56.9807 90.6116 57.0536 90.5855 57.08C90.5456 57.1345 90.5006 57.2083 90.4505 57.3014C90.4056 57.3927 90.3529 57.4954 90.2924 57.6096C90.2891 57.6341 90.2841 57.6709 90.2774 57.7199C90.2708 57.769 90.2528 57.8277 90.2235 57.8962C90.1758 57.8247 90.1061 57.7403 90.0144 57.643C89.9228 57.5456 89.8056 57.4247 89.6629 57.2804Z" fill="white"/>
<defs>
<filter id="filter0_d_181_5" x="4.9375" y="8.93799" width="120.027" height="120.027" filterUnits="userSpaceOnUse" color-interpolation-filters="sRGB">
<feFlood flood-opacity="0" result="BackgroundImageFix"/>
<feColorMatrix in="SourceAlpha" type="matrix" values="0 0 0 0 0 0 0 0 0 0 0 0 0 0 0 0 0 0 127 0" result="hardAlpha"/>
<feOffset dy="4"/>
<feGaussianBlur stdDeviation="5"/>
<feColorMatrix type="matrix" values="0 0 0 0 0 0 0 0 0 0 0 0 0 0 0 0 0 0 0.2 0"/>
<feBlend mode="normal" in2="BackgroundImageFix" result="effect1_dropShadow_181_5"/>
<feBlend mode="normal" in="SourceGraphic" in2="effect1_dropShadow_181_5" result="shape"/>
</filter>
</defs>
</svg>
